name Walk2.mot
datacolumns 19
datarows 20
range 1.01000000 1.02900000
endheader

                time	   L_ground_force_vx	   L_ground_force_vy	   L_ground_force_vz	   L_ground_force_px	   L_ground_force_py	   L_ground_force_pz	   R_ground_force_vx	   R_ground_force_vy	   R_ground_force_vz	   R_ground_force_px	   R_ground_force_py	   R_ground_force_pz	   L_ground_torque_x	   L_ground_torque_y	   L_ground_torque_z	   R_ground_torque_x	   R_ground_torque_y	   R_ground_torque_z	
          1.01000000	         -9.01063415	        107.81107800	         -5.74165898	         -0.00147675	          0.00000000	         -0.00209228	          0.00000002	         -0.00000010	          0.00000000	         -0.00000000	          0.00000000	         -0.00000000	          0.00000000	          0.23183784	          0.00000000	          0.00000000	          0.00000000	          0.00000000	
          1.01100000	        -10.07694797	        116.39249851	         -6.22377824	         -0.01117910	          0.00000000	         -0.00413393	          0.00000002	         -0.00000010	          0.00000000	         -0.00000000	          0.00000000	         -0.00000000	          0.00000000	          0.24912018	          0.00000000	          0.00000000	          0.00000000	          0.00000000	
          1.01200000	        -11.20132572	        125.24267345	         -6.71522207	         -0.02085324	          0.00000000	         -0.00617427	          0.00000002	         -0.00000010	          0.00000000	         -0.00000000	          0.00000000	         -0.00000000	          0.00000000	          0.26727106	          0.00000000	          0.00000000	          0.00000000	          0.00000000	
          1.01300000	        -12.38450677	        134.35104812	         -7.21503545	         -0.03047542	          0.00000000	         -0.00820846	          0.00000002	         -0.00000010	          0.00000000	         -0.00000000	          0.00000000	         -0.00000000	          0.00000000	          0.28629005	          0.00000000	          0.00000000	          0.00000000	          0.00000000	
          1.01400000	        -13.62705523	        143.70511128	         -7.72215846	         -0.04002154	          0.00000000	         -0.01023154	          0.00000002	         -0.00000010	          0.00000000	         -0.00000000	          0.00000000	         -0.00000000	          0.00000000	          0.30617249	          0.00000000	          0.00000000	          0.00000000	          0.00000000	
          1.01500000	        -14.92934146	        153.29025308	         -8.23541854	         -0.04946705	          0.00000000	         -0.01223846	          0.00000002	         -0.00000010	          0.00000000	         -0.00000000	          0.00000000	         -0.00000000	          0.00000000	          0.32690929	          0.00000000	          0.00000000	          0.00000000	          0.00000000	
          1.01600000	        -16.29152258	        163.08963139	         -8.75352505	         -0.05878699	          0.00000000	         -0.01422402	          0.00000002	         -0.00000010	          0.00000000	         -0.00000000	          0.00000000	         -0.00000000	          0.00000000	          0.34848647	          0.00000000	          0.00000000	          0.00000000	          0.00000000	
          1.01700000	        -17.71352152	        173.08408702	         -9.27507244	         -0.06795676	          0.00000000	         -0.01618308	          0.00000002	         -0.00000010	          0.00000000	         -0.00000000	          0.00000000	         -0.00000000	          0.00000000	          0.37088462	          0.00000000	          0.00000000	          0.00000000	          0.00000000	
          1.01800000	        -19.19500537	        183.25215286	         -9.79855342	         -0.07695331	          0.00000000	         -0.01811078	          0.00000002	         -0.00000010	          0.00000000	         -0.00000000	          0.00000000	         -0.00000000	          0.00000000	          0.39407818	          0.00000000	          0.00000000	          0.00000000	          0.00000000	
          1.01900000	        -20.73536348	        193.57017855	        -10.32237471	         -0.08575599	          0.00000000	         -0.02000269	          0.00000002	         -0.00000010	          0.00000000	         -0.00000000	          0.00000000	         -0.00000000	          0.00000000	          0.41803520	          0.00000000	          0.00000000	          0.00000000	          0.00000000	
          1.02000000	        -22.33368549	        204.01258931	        -10.84487063	         -0.09434658	          0.00000000	         -0.02185494	          0.00000002	         -0.00000009	          0.00000000	         -0.00000000	          0.00000000	         -0.00000000	          0.00000000	          0.44271753	          0.00000000	          0.00000000	          0.00000000	          0.00000000	
          1.02100000	        -23.98873776	        214.55230299	        -11.36431533	         -0.10270923	          0.00000000	         -0.02366409	          0.00000002	         -0.00000009	          0.00000000	         -0.00000000	          0.00000000	         -0.00000000	          0.00000000	          0.46808139	          0.00000000	          0.00000000	          0.00000000	          0.00000000	
          1.02200000	        -25.69893722	        225.16130527	        -11.87893518	         -0.11083033	          0.00000000	         -0.02542719	          0.00000002	         -0.00000009	          0.00000000	          0.00000000	          0.00000000	          0.00000000	          0.00000000	          0.49407831	          0.00000000	          0.00000000	          0.00000000	          0.00000000	
          1.02300000	        -27.46232284	        235.81134170	        -12.38692157	         -0.11869834	          0.00000000	         -0.02714175	          0.00000002	         -0.00000008	          0.00000000	          0.00000000	          0.00000000	          0.00000000	          0.00000000	          0.52065631	          0.00000000	          0.00000000	          0.00000000	          0.00000000	
          1.02400000	        -29.27652740	        246.47464691	        -12.88644527	         -0.12630369	          0.00000000	         -0.02880566	          0.00000002	         -0.00000008	          0.00000000	          0.00000000	          0.00000000	          0.00000000	          0.00000000	          0.54776136	          0.00000000	          0.00000000	          0.00000000	          0.00000000	
          1.02500000	        -31.13875428	        257.12461107	        -13.37567291	         -0.13363867	          0.00000000	         -0.03041722	          0.00000001	         -0.00000007	          0.00000000	          0.00000000	          0.00000000	          0.00000000	          0.00000000	          0.57533871	          0.00000000	          0.00000000	          0.00000000	          0.00000000	
          1.02600000	        -33.04576498	        267.73629290	        -13.85278639	         -0.14069728	          0.00000000	         -0.03197505	          0.00000001	         -0.00000006	          0.00000000	          0.00000000	          0.00000000	          0.00000000	          0.00000000	          0.60333397	          0.00000000	          0.00000000	          0.00000000	          0.00000000	
          1.02700000	        -34.99388191	        278.28672438	        -14.31600485	         -0.14747510	          0.00000000	         -0.03347815	          0.00000001	         -0.00000005	          0.00000000	          0.00000000	          0.00000000	          0.00000000	          0.00000000	          0.63169371	          0.00000000	          0.00000000	          0.00000000	          0.00000000	
          1.02800000	        -36.97900776	        288.75500121	        -14.76360800	         -0.15396922	          0.00000000	         -0.03492579	          0.00000001	         -0.00000004	          0.00000000	          0.00000000	          0.00000000	          0.00000000	          0.00000000	          0.66036571	          0.00000000	          0.00000000	          0.00000000	          0.00000000	
          1.02900000	        -38.99665976	        299.12219708	        -15.19395862	         -0.16017807	          0.00000000	         -0.03631754	          0.00000001	         -0.00000003	         -0.00000000	          0.00000000	          0.00000000	          0.00000000	          0.00000000	          0.68929892	          0.00000000	          0.00000000	          0.00000000	          0.00000000	
